<svg xmlns="http://www.w3.org/2000/svg" viewBox="0 0 100 100" id="alarm">
  <path d="M50 87c2.58 0 5.16-.14 7.73-.4-1.59 2.66-4.5 4.4-7.73 4.4s-6.14-1.74-7.73-4.4c2.57.26 5.15.4 7.73.4zm4.95-73.48C54.7 10.99 52.59 9 50 9s-4.7 1.99-4.95 4.52c1.6-.34 3.25-.52 4.95-.52s3.35.18 4.95.52zm14.77 33.37c0 10.98 3.89 21.3 10.96 29.2a71.517 71.517 0 0 1-61.36 0c7.08-7.9 10.96-18.22 10.96-29.2v-10.4C30.28 25.74 39.12 17 50 17s19.72 8.74 19.72 19.49v10.4zM52 25c0-1.1-.9-2-2-2-7.72 0-14 6.28-14 14 0 1.1.9 2 2 2s2-.9 2-2c0-.78.1-1.54.27-2.27.86-3.69 3.77-6.6 7.46-7.46.73-.17 1.49-.27 2.27-.27 1.1 0 2-.9 2-2zM20.41 49.63A6.497 6.497 0 0 1 18.49 45c0-1.75.68-3.39 1.92-4.63.78-.78.78-2.05 0-2.83-.78-.78-2.05-.78-2.83 0-1.99 1.99-3.09 4.64-3.09 7.46s1.1 5.47 3.09 7.46c.39.39.9.59 1.41.59s1.02-.2 1.41-.59c.8-.78.8-2.05.01-2.83zm-6.71-18.8c-.78-.78-2.05-.78-2.83 0-7.81 7.81-7.81 20.53 0 28.35.39.39.9.59 1.41.59s1.02-.2 1.41-.59c.78-.78.78-2.05 0-2.83-6.26-6.26-6.26-16.43 0-22.69.79-.79.79-2.05.01-2.83zm65.89 6.71c-.78.78-.78 2.05 0 2.83A6.497 6.497 0 0 1 81.51 45c0 1.75-.68 3.39-1.92 4.63A2.004 2.004 0 0 0 81 53.05c.51 0 1.02-.2 1.41-.59 1.99-1.99 3.09-4.64 3.09-7.46s-1.1-5.47-3.09-7.46c-.78-.78-2.04-.78-2.82 0zm9.54-6.71c-.78-.78-2.05-.78-2.83 0-.78.78-.78 2.05 0 2.83C89.33 36.69 91 40.71 91 45s-1.67 8.31-4.7 11.34a2.004 2.004 0 0 0 1.41 3.42c.51 0 1.02-.2 1.41-.59C92.92 55.39 95 50.35 95 45s-2.08-10.39-5.87-14.17z"></path>
</svg>
