<?xml version="1.0" encoding="UTF-8"?>
<svg id="user-account" xmlns="http://www.w3.org/2000/svg" viewBox="0 0 16 16">
  <defs>
    <style>
      .cls-1 {
        fill: none;
        stroke: #1d1d1b;
      }

      .cls-1, .cls-2 {
        stroke-miterlimit: 10;
      }

      .cls-2 {
        fill: #1d1d1b;
        stroke: #000;
        stroke-width: .5px;
      }
    </style>
  </defs>
  <path class="cls-1" d="M8,.5C3.86.5.5,3.86.5,8c0,2.04.8,3.94,2.25,5.35,1.4,1.39,3.27,2.15,5.25,2.15.25,0,.49-.01.74-.04,1.71-.17,3.29-.9,4.51-2.12,0,0,0,0,0,0h0s0,0,0,0c1.45-1.41,2.25-3.31,2.25-5.34C15.5,3.86,12.14.5,8,.5Z"/>
  <g>
    <path class="cls-2" d="M7.99,13.01c-2.73,0-4.93-2.21-4.93-4.94,0-1.34.55-2.63,1.52-3.56.09-.09.25-.1.34,0,0,0,0,0,0,0,.09.09.09.25,0,.34-1.77,1.7-1.84,4.52-.14,6.29,1.7,1.77,4.52,1.84,6.29.14,1.77-1.7,1.84-4.52.14-6.29-.04-.05-.09-.09-.14-.14-.09-.09-.09-.25,0-.34.09-.09.25-.1.34,0,0,0,0,0,0,0,1.97,1.89,2.03,5.01.14,6.98-.93.97-2.22,1.52-3.57,1.52Z"/>
    <path class="cls-2" d="M7.99,8.48c-.13,0-.24-.11-.24-.24V3.24c0-.13.11-.24.24-.24s.24.11.24.24v5.01c0,.13-.11.24-.24.24Z"/>
  </g>
</svg>