<?xml version="1.0" encoding="UTF-8"?>
<svg id="user-account" xmlns="http://www.w3.org/2000/svg" viewBox="0 0 16 16">
  <defs>
    <style>
      .cls-1 {
        fill: none;
        stroke: #1d1d1b;
        stroke-miterlimit: 10;
      }
    </style>
  </defs>
  <path class="cls-1" d="M8,.5C3.86.5.5,3.86.5,8c0,2.04.8,3.94,2.25,5.35,1.4,1.39,3.27,2.15,5.25,2.15.25,0,.49-.01.74-.04,1.71-.17,3.29-.9,4.51-2.12,0,0,0,0,0,0h0s0,0,0,0c1.45-1.41,2.25-3.31,2.25-5.34C15.5,3.86,12.14.5,8,.5Z"/>
  <path d="M7.27,2.99c-.17,0-.31.12-.35.28l-.14.66c-.28.08-.55.18-.81.31l-.57-.36c-.14-.09-.33-.07-.44.05l-1.03,1.03c-.12.12-.14.3-.05.44l.37.58c-.13.24-.24.5-.32.77l-.68.16c-.16.04-.28.18-.28.35v1.43c0,.17.11.31.28.35l.68.16c.08.27.19.53.32.77l-.37.58c-.09.14-.07.32.05.44l1.01,1.03c.12.12.31.14.45.05l.59-.37c.26.14.53.25.81.33l.14.67c.03.17.18.28.35.28h1.43c.17,0,.31-.12.35-.28l.14-.65c.29-.08.57-.19.83-.33l.57.35c.14.09.32.07.44-.05l1.01-.98c.12-.12.14-.3.06-.44l-.36-.59c.14-.25.24-.52.33-.79l.67-.14c.17-.03.28-.18.28-.35v-1.47c0-.17-.12-.31-.28-.35l-.64-.14c-.08-.28-.19-.55-.33-.81l.35-.57c.09-.14.07-.32-.05-.44l-1.03-1.03c-.12-.12-.3-.14-.44-.05l-.57.35c-.26-.14-.53-.25-.81-.33l-.14-.65c-.04-.17-.18-.28-.35-.28h-1.45ZM7.56,3.71h.87l.12.54c.03.13.13.24.27.27.37.08.73.23,1.06.42.12.07.26.07.38,0l.47-.3.63.63-.3.47c-.07.12-.07.26,0,.38.19.31.34.67.43,1.06.03.13.14.24.27.27l.55.12v.9l-.56.12c-.13.03-.24.13-.27.26-.09.37-.23.71-.42,1.03-.07.11-.07.26,0,.38l.3.49-.6.59-.48-.3c-.12-.07-.26-.07-.38,0-.33.2-.7.34-1.08.42-.14.03-.24.14-.27.27l-.12.55h-.85l-.12-.57c-.03-.13-.13-.24-.27-.27-.39-.09-.75-.23-1.06-.42-.12-.07-.26-.07-.38,0l-.49.31-.6-.62.32-.5c.07-.11.08-.26,0-.38-.19-.31-.34-.66-.43-1.02-.03-.13-.13-.23-.26-.26l-.57-.14v-.86l.57-.14c.13-.03.23-.13.27-.26.09-.36.24-.7.43-1.02.07-.12.07-.26,0-.38l-.31-.5.62-.62.47.3c.12.07.26.07.38,0,.3-.19.66-.31,1.06-.4.13-.03.24-.14.26-.27l.12-.56h0ZM8.01,5.85c-1.18,0-2.15.97-2.15,2.15s.96,2.14,2.15,2.14,2.15-.96,2.15-2.14-.97-2.15-2.15-2.15ZM8.01,6.57c.79,0,1.43.64,1.43,1.43s-.64,1.43-1.43,1.43-1.43-.63-1.43-1.43.64-1.43,1.43-1.43Z"/>
</svg>