<?xml version="1.0" encoding="UTF-8"?>
<svg id="user-account" xmlns="http://www.w3.org/2000/svg" version="1.1" viewBox="0 0 16 16">
  <!-- Generator: Adobe Illustrator 29.0.1, SVG Export Plug-In . SVG Version: 2.1.0 Build 192)  -->
  <defs>
    <style>
      .st0 {
        fill: none;
        stroke: #1d1d1b;
      }

      .st0, .st1 {
        stroke-miterlimit: 10;
      }

      .st1 {
        fill: #1d1d1b;
        stroke: #000;
        stroke-width: .5px;
      }
    </style>
  </defs>
  <path class="st0" d="M8,.5C3.9.5.5,3.9.5,8s.8,3.9,2.2,5.3c1.4,1.4,3.3,2.2,5.3,2.2s.5,0,.7,0c1.7-.2,3.3-.9,4.5-2.1,0,0,0,0,0,0h0s0,0,0,0c1.4-1.4,2.2-3.3,2.2-5.3,0-4.1-3.4-7.5-7.5-7.5Z"/>
  <g>
    <path class="st1" d="M8,13c-2.7,0-4.9-2.2-4.9-4.9,0-1.3.5-2.6,1.5-3.6,0,0,.2,0,.3,0,0,0,0,0,0,0,0,0,0,.2,0,.3-1.8,1.7-1.8,4.5-.1,6.3,1.7,1.8,4.5,1.8,6.3.1,1.8-1.7,1.8-4.5.1-6.3,0,0,0,0-.1-.1,0,0,0-.2,0-.3,0,0,.2,0,.3,0,0,0,0,0,0,0,2,1.9,2,5,.1,7-.9,1-2.2,1.5-3.6,1.5Z"/>
    <path class="st1" d="M8,8.5c-.1,0-.2-.1-.2-.2V3.2c0-.1.1-.2.2-.2s.2.1.2.2v5c0,.1-.1.2-.2.2Z"/>
  </g>
</svg>